<svg width="89" height="23" viewBox="0 0 89 23" fill="none" xmlns="http://www.w3.org/2000/svg">
<g clip-path="url(#clip0_5_336)">
<path d="M27.0435 15.9691H33.2304V14.0959H29.2424V7.04028H27.0435V15.9691Z" fill="#999999"/>
<path d="M36.896 14.722C36.0139 14.722 35.5543 13.9478 35.5543 12.7864C35.5543 11.6251 36.0139 10.8383 36.896 10.8383C37.7781 10.8383 38.2502 11.6251 38.2502 12.7864C38.2502 13.9478 37.7781 14.722 36.896 14.722ZM36.9084 16.1706C38.9583 16.1706 40.3001 14.7095 40.3001 12.7864C40.3001 10.8633 38.9583 9.40222 36.9084 9.40222C34.871 9.40222 33.5044 10.8633 33.5044 12.7864C33.5044 14.7095 34.871 16.1706 36.9084 16.1706Z" fill="#999999"/>
<path d="M43.8485 18.1807C44.7927 18.1807 45.6251 17.9684 46.1841 17.4689C46.6935 17.0068 47.0289 16.3075 47.0289 15.346V9.5766H45.0909V10.2634H45.066C44.6933 9.72645 44.1218 9.38928 43.277 9.38928C41.6992 9.38928 40.606 10.713 40.606 12.5862C40.606 14.5467 41.9353 15.6207 43.364 15.6207C44.1342 15.6207 44.6188 15.3085 44.9915 14.8839H45.0412V15.5208C45.0412 16.295 44.6809 16.7446 43.8237 16.7446C43.1528 16.7446 42.8173 16.4574 42.7055 16.1202H40.7426C40.9414 17.4564 42.0968 18.1807 43.8485 18.1807ZM43.8361 14.1097C43.0782 14.1097 42.5813 13.4853 42.5813 12.5237C42.5813 11.5497 43.0782 10.9253 43.8361 10.9253C44.6809 10.9253 45.1281 11.6496 45.1281 12.5112C45.1281 13.4104 44.7181 14.1097 43.8361 14.1097Z" fill="#999999"/>
<path d="M51.0137 14.722C50.1316 14.722 49.672 13.9478 49.672 12.7864C49.672 11.6251 50.1316 10.8383 51.0137 10.8383C51.8958 10.8383 52.3676 11.6251 52.3676 12.7864C52.3676 13.9478 51.8958 14.722 51.0137 14.722ZM51.0261 16.1706C53.0758 16.1706 54.4175 14.7095 54.4175 12.7864C54.4175 10.8633 53.0758 9.40222 51.0261 9.40222C48.9887 9.40222 47.6221 10.8633 47.6221 12.7864C47.6221 14.7095 48.9887 16.1706 51.0261 16.1706Z" fill="#999999"/>
<path d="M55.0093 15.9691H57.0343V9.57531H55.0093V15.9691ZM55.0093 8.68867H57.0343V7.04028H55.0093V8.68867Z" fill="#999999"/>
<path d="M57.9126 18.0808H59.9376V15.3085H59.9625C60.36 15.8455 60.9439 16.1702 61.7639 16.1702C63.4286 16.1702 64.5343 14.8465 64.5343 12.7735C64.5343 10.8504 63.5032 9.38928 61.8136 9.38928C60.9439 9.38928 60.3228 9.7764 59.8879 10.3508H59.8507V9.5766H57.9126V18.0808ZM61.2421 14.5967C60.3725 14.5967 59.8755 13.8849 59.8755 12.8484C59.8755 11.8119 60.3228 11.0252 61.2048 11.0252C62.0745 11.0252 62.4845 11.7495 62.4845 12.8484C62.4845 13.9348 62.0124 14.5967 61.2421 14.5967Z" fill="#999999"/>
<path d="M67.8313 16.1702C69.496 16.1702 70.7259 15.4459 70.7259 14.0472C70.7259 12.4113 69.409 12.1241 68.2909 11.9368C67.4834 11.7869 66.7628 11.7245 66.7628 11.2749C66.7628 10.8753 67.148 10.688 67.6449 10.688C68.204 10.688 68.5891 10.8628 68.6636 11.4373H70.5272C70.4278 10.176 69.4587 9.38928 67.6573 9.38928C66.1541 9.38928 64.9117 10.0886 64.9117 11.4373C64.9117 12.9358 66.092 13.2355 67.1977 13.4228C68.0425 13.5727 68.8127 13.6351 68.8127 14.2096C68.8127 14.6217 68.4276 14.8465 67.8188 14.8465C67.148 14.8465 66.7256 14.5343 66.651 13.8974H64.7378C64.7999 15.3085 65.9677 16.1702 67.8313 16.1702Z" fill="#999999"/>
<path d="M73.477 16.1579C74.359 16.1579 74.9181 15.8082 75.3778 15.1838H75.415V15.9705H77.3531V9.57678H75.3281V13.1483C75.3281 13.9101 74.9057 14.4345 74.2099 14.4345C73.5639 14.4345 73.2533 14.0474 73.2533 13.3481V9.57678H71.2407V13.7727C71.2407 15.1963 72.011 16.1579 73.477 16.1579Z" fill="#999999"/>
<path d="M78.2339 15.9704H80.2589V12.3864C80.2589 11.6246 80.6316 11.0876 81.2652 11.0876C81.874 11.0876 82.1597 11.4872 82.1597 12.1741V15.9704H84.1848V12.3864C84.1848 11.6246 84.545 11.0876 85.1911 11.0876C85.7998 11.0876 86.0856 11.4872 86.0856 12.1741V15.9704H88.1106V11.8119C88.1106 10.3758 87.39 9.38928 85.9489 9.38928C85.1289 9.38928 84.4456 9.73894 83.9487 10.5132H83.9239C83.6009 9.82636 82.9672 9.38928 82.1349 9.38928C81.2155 9.38928 80.6068 9.82636 80.2092 10.4882H80.172V9.5766H78.2339V15.9704Z" fill="#999999"/>
<path fill-rule="evenodd" clip-rule="evenodd" d="M10.9052 21.6945C16.623 21.6945 21.2581 17.0353 21.2581 11.288C21.2581 5.54062 16.623 0.88147 10.9052 0.88147C5.18741 0.88147 0.552246 5.54062 0.552246 11.288C0.552246 17.0353 5.18741 21.6945 10.9052 21.6945ZM12.5031 8.92182C13.3856 8.03472 13.3856 6.59649 12.5031 5.70939C11.6206 4.8223 10.1898 4.8223 9.30724 5.70939C8.42476 6.59649 8.42476 8.03472 9.30724 8.92182L10.9052 10.528L12.5031 8.92182ZM13.2592 12.8942C14.1417 13.7813 15.5725 13.7813 16.4551 12.8942C17.3376 12.0071 17.3376 10.5689 16.4551 9.68176C15.5725 8.79471 14.1417 8.79471 13.2592 9.68176L11.6612 11.288L13.2592 12.8942ZM12.5031 16.8666C13.3856 15.9795 13.3856 14.5412 12.5031 13.6541L10.9052 12.0479L9.30724 13.6541C8.42476 14.5412 8.42476 15.9795 9.30724 16.8666C10.1898 17.7537 11.6206 17.7537 12.5031 16.8666ZM5.3553 12.8942C4.4728 12.0071 4.4728 10.5689 5.3553 9.68176C6.23785 8.79471 7.66868 8.79471 8.55122 9.68176L10.1491 11.288L8.55122 12.8942C7.66868 13.7813 6.23785 13.7813 5.3553 12.8942Z" fill="#999999"/>
</g>
<defs>
<clipPath id="clip0_5_336">
<rect width="88" height="21.3333" fill="white" transform="translate(0.5 0.712158)"/>
</clipPath>
</defs>
</svg>
